Coordinates
version=1
nRows=18
nColumns=22
inDegrees=yes

Units are S.I. units (second, meters, Newtons, ...)
If the header above contains a line with 'inDegrees', this indicates whether rotational values are in degrees (yes) or radians (no).

endheader
time	pelvis_tilt	pelvis_list	pelvis_rotation	pelvis_tx	pelvis_ty	pelvis_tz	hip_flexion_r	hip_adduction_r	hip_rotation_r	knee_angle_r	ankle_angle_r	subtalar_angle_r	hip_flexion_l	hip_adduction_l	hip_rotation_l	knee_angle_l	ankle_angle_l	subtalar_angle_l	lumbar_extension	lumbar_bending	lumbar_rotation
      2.10000000	    -11.01661824	      3.95618070	    -21.17576329	      0.17916133	      0.90022872	      0.12045198	     56.65538812	     -5.39760204	     -6.84455783	    -53.59739296	     14.45216009	      0.43508314	     14.07628946	      9.47140096	     -1.23139377	    -43.38927843	     33.60395367	     -4.53272951	     -7.96262818	      3.76803356	     -3.31908353
      2.11000000	    -10.92103275	      3.89179935	    -20.65193534	      0.20150284	      0.90340148	      0.12809748	     56.06768905	     -5.40988395	     -8.16762409	    -48.93478316	     12.31643180	      3.54757678	     11.78404505	      9.28849503	     -1.02245108	    -42.05918787	     31.53081135	     -2.98156788	     -7.50628456	      3.90508907	     -4.27630615
      2.12000000	    -10.79728182	      3.89324222	    -20.12616525	      0.22421365	      0.90641844	      0.13590457	     55.30975824	     -5.41317549	     -9.42030861	    -44.29422736	      9.88779392	      7.00945876	      9.58471261	      9.14171045	     -0.79881487	    -40.87586419	     29.18344092	     -1.26585998	     -7.01690644	      3.94655885	     -5.21394571
      2.13000000	    -10.63807960	      3.95950402	    -19.60217660	      0.24724013	      0.90916390	      0.14385611	     54.42945278	     -5.41054830	    -10.57978910	    -39.83159955	      7.30144641	     10.62556632	      7.51438149	      9.04107176	     -0.53065440	    -39.91393783	     26.57294058	      0.55546828	     -6.51090315	      3.88715970	     -6.10671896
      2.14000000	    -10.44897298	      4.09184983	    -19.07507970	      0.27047642	      0.91151681	      0.15190753	     53.50460132	     -5.41925886	    -11.62427453	    -35.73192602	      4.67677356	     14.09670145	      5.63093275	      8.99691474	     -0.17179793	    -39.25716539	     23.75683848	      2.39449463	     -6.00005296	      3.72388730	     -6.96368644
      2.15000000	    -10.23119810	      4.25046476	    -18.55099759	      0.29382372	      0.91342629	      0.16000792	     52.57746819	     -5.43343362	    -12.58703941	    -32.16417333	      2.25466224	     17.04957854	      3.98116719	      8.96972508	      0.27120861	    -38.99855052	     20.73889333	      4.15623377	     -5.51865502	      3.50808407	     -7.76591221
      2.16000000	    -10.02582409	      4.47523283	    -18.05061700	      0.31707319	      0.91474103	      0.16808368	     51.79477999	     -5.48174577	    -13.41534891	    -29.31775840	      0.09886977	     19.24508030	      2.67393164	      9.00688207	      0.81543890	    -39.20363304	     17.67722844	      5.77889404	     -5.03708664	      3.20941581	     -8.47730905
      2.17000000	     -9.84640894	      4.72128460	    -17.60462920	      0.34008433	      0.91543666	      0.17609867	     51.20164101	     -5.53905031	    -14.13719331	    -27.31573040	     -1.62122549	     20.37028136	      1.76081319	      9.06105516	      1.39182354	    -39.94073546	     14.62020861	      7.15929810	     -4.58252743	      2.89120689	     -9.05181598
      2.18000000	     -9.69958836	      4.94594549	    -17.23673899	      0.36268821	      0.91549287	      0.18404482	     50.82679611	     -5.57493846	    -14.74466259	    -26.23587905	     -2.79997420	     20.26025834	      1.28520913	      9.08698483	      1.92080205	    -41.26837703	     11.67845889	      8.25440160	     -4.18850563	      2.60218094	     -9.44908073
      2.19000000	     -9.57876253	      5.10853465	    -16.97345191	      0.38480305	      0.91492323	      0.19192221	     50.66146860	     -5.55679709	    -15.22325183	    -26.08755522	     -3.42058407	     18.77183623	      1.24054739	      9.04724688	      2.33432158	    -43.17798253	      8.95037880	      9.02784255	     -3.88645317	      2.39370234	     -9.65957876
      2.20000000	     -9.47346723	      5.18405735	    -16.81639560	      0.40638423	      0.91369622	      0.19970216	     50.70032171	     -5.48529358	    -15.57379471	    -26.87048781	     -3.41119676	     16.00333667	      1.61562830	      8.91348014	      2.58092531	    -45.65827769	      6.52535296	      9.41861771	     -3.69968018	      2.29472271	     -9.68264951
      2.21000000	     -9.32399634	      5.12322155	    -16.79955417	      0.42738804	      0.91192931	      0.20746684	     50.83334593	     -5.29344539	    -15.70960283	    -28.45042238	     -2.91416928	     12.16486620	      2.31026337	      8.63673919	      2.61384520	    -48.63668664	      4.48316576	      9.45743691	     -3.71626598	      2.33766601	     -9.50821034
      2.22000000	     -9.11934426	      4.92830296	    -16.89795854	      0.44785693	      0.90964354	      0.21518180	     51.02910565	     -5.00706452	    -15.66411639	    -30.73054349	     -1.94112080	      7.68606510	      3.27308452	      8.21750393	      2.48238936	    -52.02326979	      2.87843817	      9.18178345	     -3.93561137	      2.51441319	     -9.14890659
      2.23000000	     -8.86531390	      4.60008491	    -17.10398037	      0.46779694	      0.90689365	      0.22286887	     51.24211660	     -4.59840634	    -15.39889084	    -33.52791308	     -0.55066443	      3.18011214	      4.46615813	      7.64142141	      2.21662800	    -55.71681174	      1.74449016	      8.63918216	     -4.34141721	      2.82107146	     -8.63799893
      2.24000000	     -8.55512686	      4.11729292	    -17.42053567	      0.48721947	      0.90380700	      0.23059396	     51.38944480	     -4.01937455	    -14.95343837	    -36.62963735	      1.16443650	     -0.92420726	      5.82725812	      6.87507686	      1.85145611	    -59.61518388	      1.16104222	      7.88029005	     -4.93341930	      3.26109838	     -7.95692383
      2.25000000	     -8.22172984	      3.49236570	    -17.80374881	      0.50612049	      0.90052427	      0.23829836	     51.44368225	     -3.28981123	    -14.42597634	    -39.84311880	      3.08912466	     -4.26106709	      7.35590037	      5.92047995	      1.46798395	    -63.61520159	      1.03498314	      6.95144972	     -5.66777476	      3.82328924	     -7.13646936
      2.26000000	     -7.88440151	      2.75290448	    -18.21688332	      0.52449415	      0.89719381	      0.24591330	     51.37257812	     -2.44336537	    -13.89543049	    -42.99290710	      5.15893261	     -6.76316976	      9.04833968	      4.81033849	      1.13879854	    -67.62012226	      1.34656363	      5.88266628	     -6.50618413	      4.47916368	     -6.23540477
      2.27000000	     -7.59333277	      1.94091745	    -18.62355558	      0.54234783	      0.89389808	      0.25338953	     51.20060015	     -1.53510490	    -13.45281861	    -45.95947092	      7.28579944	     -8.44766129	     10.94561676	      3.57939681	      0.91884587	    -71.54054416	      2.01873407	      4.71986883	     -7.36207588	      5.19219481	     -5.28912743
